<?xml version="1.0" standalone="no"?>
<!DOCTYPE svg PUBLIC "-//W3C//DTD SVG 20010904//EN"
 "http://www.w3.org/TR/2001/REC-SVG-20010904/DTD/svg10.dtd">
<svg version="1.0" xmlns="http://www.w3.org/2000/svg"
 width="200.000000pt" height="200.000000pt" viewBox="0 0 200.000000 200.000000"
 preserveAspectRatio="xMidYMid meet">

<g transform="translate(0.000000,200.000000) scale(0.100000,-0.100000)"
fill="#000000" stroke="none">
<path d="M755 1472 c-2 -2 -2 -9 0 -15 2 -7 6 -24 9 -39 8 -37 27 -36 20 0
l-6 28 69 2 c43 1 82 -5 106 -15 34 -15 40 -15 75 0 23 10 64 15 108 15 64 -1
71 -3 67 -19 -3 -11 -1 -19 5 -19 11 0 26 49 17 58 -11 11 -169 0 -202 -13
-28 -12 -38 -12 -65 -1 -30 13 -194 26 -203 18z"/>
<path d="M824 1391 c-36 -22 -58 -75 -49 -114 10 -40 58 -79 99 -80 48 -1 82
19 102 61 23 48 6 105 -39 132 -40 25 -73 25 -113 1z m90 -11 c15 -5 34 -25
43 -44 22 -46 4 -92 -44 -112 -45 -19 -94 0 -113 45 -11 28 -11 37 3 67 23 47
62 63 111 44z"/>
<path d="M1088 1394 c-15 -8 -35 -28 -43 -44 -47 -91 32 -175 138 -147 27 7
27 7 27 -41 0 -66 -39 -142 -91 -178 -56 -38 -148 -45 -205 -16 -58 30 -88 66
-80 96 9 36 61 84 107 97 26 8 36 16 30 22 -22 22 -119 -41 -149 -98 -10 -19
-11 -19 -21 8 -6 16 -11 49 -11 73 0 28 -4 43 -10 39 -13 -8 -13 -69 2 -116
13 -44 72 -119 94 -119 8 0 14 -4 14 -9 0 -14 59 -31 110 -31 51 0 110 17 110
31 0 5 6 9 14 9 22 0 74 60 92 106 11 30 15 62 12 101 -3 35 0 70 8 89 22 52
-5 115 -58 133 -40 14 -57 13 -90 -5z m92 -19 c89 -46 25 -187 -70 -154 -57
20 -76 104 -32 142 34 30 62 33 102 12z"/>
<path d="M1040 1183 c0 -5 18 -15 39 -22 22 -6 53 -27 71 -47 17 -20 34 -34
36 -31 10 9 -16 46 -49 72 -36 26 -97 44 -97 28z"/>
</g>
</svg>
