<?xml version="1.0" standalone="no"?>
<!DOCTYPE svg PUBLIC "-//W3C//DTD SVG 20010904//EN"
 "http://www.w3.org/TR/2001/REC-SVG-20010904/DTD/svg10.dtd">
<svg version="1.0" xmlns="http://www.w3.org/2000/svg"
 width="100.000000pt" height="100.000000pt" viewBox="0 0 150.000000 150.000000"
 preserveAspectRatio="xMidYMid meet">

<g transform="translate(0.000000,200.000000) scale(0.100000,-0.100000)"
fill="#000000" stroke="none">
<path d="M990 1404 l0 -57 -85 -86 -85 -87 0 -62 0 -61 -142 -3 -143 -3 -3
-142 -3 -143 -169 0 -170 0 0 -110 0 -110 810 0 810 0 0 110 0 110 -175 0
-174 0 -3 143 -3 142 -142 3 -143 3 0 67 0 67 -80 80 c-53 53 -80 87 -80 102
0 21 4 23 60 23 l60 0 0 35 0 35 -70 0 -70 0 0 -56z m31 -194 c26 -15 26 -66
-1 -80 -48 -26 -91 30 -55 70 21 23 29 24 56 10z m-343 -257 l3 -43 -45 0 -46
0 0 46 0 45 43 -3 c42 -3 42 -3 45 -45z m142 2 l0 -45 -45 0 -45 0 0 38 c0 21
3 42 7 45 3 4 24 7 45 7 l38 0 0 -45z m438 -2 l3 -43 -45 0 -46 0 0 38 c0 21
3 42 7 46 4 4 23 6 43 4 34 -3 35 -5 38 -45z m150 0 l3 -43 -45 0 -46 0 0 46
0 45 43 -3 c42 -3 42 -3 45 -45z m-366 -10 c15 -13 18 -31 18 -100 l0 -83 -65
0 -65 0 0 78 c0 93 15 122 62 122 17 0 40 -7 50 -17z m-362 -138 l0 -45 -45 0
-45 0 0 45 0 45 45 0 45 0 0 -45z m140 0 l0 -45 -45 0 -45 0 0 45 0 45 45 0
45 0 0 -45z m440 0 l0 -45 -45 0 -45 0 0 45 0 45 45 0 45 0 0 -45z m150 0 l0
-45 -45 0 -45 0 0 45 0 45 45 0 45 0 0 -45z m-220 -95 c0 -5 -9 -6 -20 -3 -28
7 -25 -15 5 -47 26 -27 26 -54 -1 -64 -21 -8 -44 4 -44 22 0 13 2 13 13 -3 14
-19 37 -13 37 9 0 7 -11 23 -25 36 -29 27 -32 45 -8 58 18 10 43 5 43 -8z
m-352 3 c-22 -3 -28 -10 -28 -30 0 -20 4 -24 20 -20 11 3 20 1 20 -4 0 -5 -9
-9 -20 -9 -14 0 -20 -7 -20 -21 0 -17 5 -20 25 -17 14 3 25 1 25 -3 0 -5 -16
-9 -35 -9 l-35 0 0 60 0 60 38 -1 c30 -2 32 -3 10 -6z m111 -15 c5 -13 16 -40
25 -60 11 -25 12 -38 5 -38 -6 0 -13 9 -16 20 -3 13 -14 20 -28 20 -15 0 -26
-8 -30 -20 -3 -11 -10 -20 -16 -20 -5 0 2 25 16 56 14 31 25 58 25 60 0 12 12
1 19 -18z m133 -21 c29 -71 31 -77 20 -77 -6 0 -14 9 -17 20 -4 13 -15 20 -31
20 -17 0 -24 -5 -24 -20 0 -11 -6 -20 -14 -20 -11 0 -9 12 10 50 13 27 24 54
24 60 0 23 16 7 32 -33z"/>
<path d="M926 675 c-9 -23 -8 -25 9 -25 17 0 19 9 6 28 -7 11 -10 10 -15 -3z"/>
<path d="M1047 670 c-3 -13 0 -20 9 -20 15 0 19 26 5 34 -5 3 -11 -3 -14 -14z"/>
</g>
</svg>
